# xmcd CD database file
#
# Track frame offsets:
#	150
#	21472
#	38289
#	58527
#
# Disc length: 1064 seconds
#
# Revision: 1
# Processed by: cddbd v1.5.1PL2 Copyright (c) Steve Scherf et al.
# Submitted via: CDex 1.51
#
DISCID=27042604
DTITLE=HALCALI - Tip Taps Tip
DYEAR=2005
DGENRE=Pop
TTITLE0=Tip Taps Tip
TTITLE1=halcali'n'bass
TTITLE2=ピスドリ
TTITLE3=Tip Taps Tip Instrumental
EXTD=YEAR: 2005
EXTT0=
EXTT1=
EXTT2=
EXTT3=
PLAYORDER=
